<svg xmlns="http://www.w3.org/2000/svg" width="26.055" height="19.285" viewBox="0 0 26.055 19.285"><path d="M9.492,5.177a18.052,18.052,0,0,0-4.021,1.3,4.58,4.58,0,0,0-1.608,2c-.6,1.111-1.085,2.411-1.87,4.322a22.049,22.049,0,0,0-.941,6.72A2.652,2.652,0,0,0,2.36,22.182,25.677,25.677,0,0,0,5.6,23.96c1.073.418,1.8.719,2.3.3a3.736,3.736,0,0,0,.824-1.151s.471-.654-.418-1.046-1.334-.668-1.3-1.073.1-.627.326-.575a5.556,5.556,0,0,0,2.76,1.425,18.578,18.578,0,0,0,3.976.367,18.522,18.522,0,0,0,3.977-.367,5.551,5.551,0,0,0,2.759-1.425c.222-.052.287.17.326.574s-.405.681-1.294,1.074-.418,1.046-.418,1.046a3.746,3.746,0,0,0,.824,1.151c.5.418,1.229.117,2.3-.3A25.581,25.581,0,0,0,25.8,22.182,2.652,2.652,0,0,0,27.1,19.514a22.031,22.031,0,0,0-.942-6.72c-.784-1.911-1.268-3.21-1.87-4.322a4.589,4.589,0,0,0-1.608-2,18.1,18.1,0,0,0-4.021-1.294,1.188,1.188,0,0,0-1.143.615l-.308.68a23.624,23.624,0,0,0-3.12-.394,24.111,24.111,0,0,0-3.147.394l-.308-.681a1.188,1.188,0,0,0-1.144-.614Zm.1,8.159h.033a2.427,2.427,0,0,1,2.329,2.515,2.427,2.427,0,0,1-2.329,2.515,2.427,2.427,0,0,1-2.329-2.515A2.43,2.43,0,0,1,9.588,13.336Zm8.946,0h.033a2.431,2.431,0,0,1,2.3,2.515,2.427,2.427,0,0,1-2.329,2.515A2.426,2.426,0,0,1,16.2,15.851,2.427,2.427,0,0,1,18.534,13.336Z" transform="translate(-1.05 -5.177)" fill="#fff" style="mix-blend-mode:exclusion;isolation:isolate"/></svg>