<svg xmlns="http://www.w3.org/2000/svg" width="18.287" height="18.398" viewBox="0 0 18.287 18.398"><path d="M19,2H3.412A1.334,1.334,0,0,0,2.06,3.315V19.082A1.334,1.334,0,0,0,3.412,20.4H19a1.334,1.334,0,0,0,1.352-1.315V3.315A1.334,1.334,0,0,0,19,2ZM7.607,17.4H4.847V9.12h2.76ZM6.227,7.961h0a1.435,1.435,0,1,1,0-2.87,1.444,1.444,0,1,1,0,2.87ZM17.56,17.4H14.8V12.956c0-1.113-.4-1.84-1.4-1.84a1.518,1.518,0,0,0-1.417,1,1.84,1.84,0,0,0-.092.672v4.6H9.134V9.111h2.76v1.168A2.76,2.76,0,0,1,14.387,8.9c1.84,0,3.174,1.187,3.174,3.735Z" transform="translate(-2.06 -2)" fill="#fff" style="mix-blend-mode:exclusion;isolation:isolate"/></svg>