<svg xmlns="http://www.w3.org/2000/svg" width="24.92" height="17.511" viewBox="0 0 24.92 17.511"><path d="M25.906,10.43a9.622,9.622,0,0,0-1.03-4.675,3.305,3.305,0,0,0-1.947-1.132,88.708,88.708,0,0,0-9.475-.351,88.8,88.8,0,0,0-9.441.34,3.249,3.249,0,0,0-1.653.838C1.341,6.388,1.228,8,1.114,9.354a54.663,54.663,0,0,0,0,7.335,10.811,10.811,0,0,0,.34,2.264,3.555,3.555,0,0,0,.8,1.54,3.238,3.238,0,0,0,1.687.883,51.144,51.144,0,0,0,7.358.374c3.962.057,7.437,0,11.547-.317a3.26,3.26,0,0,0,1.732-.883,2.819,2.819,0,0,0,.691-1.132,11.977,11.977,0,0,0,.589-3.849C25.906,14.935,25.906,11.109,25.906,10.43ZM10.9,16.248V9.241l6.7,3.521C15.717,13.8,13.238,14.98,10.9,16.248Z" transform="translate(-0.991 -4.258)" fill="#fff" style="mix-blend-mode:exclusion;isolation:isolate"/></svg>